<svg width="65" height="13" viewBox="0 0 65 13" fill="none" xmlns="http://www.w3.org/2000/svg">
<path d="M62.5032 4.57445V6.46297H57.0987V7.1846H63.4705V9.10382H60.2309V10.3782H64.8217V12.3742H53.3984V10.3782H57.9892V9.10382H54.9338V1.93359H63.0713V3.86817H57.0987V4.57445H62.5032Z" fill="white"/>
<path d="M52.685 12.3735H41.2617V10.3775H45.8525V8.70397H42.5054V6.8001H43.7797V4.11318H42.5054V2.11719H51.4567V4.11318H50.1823V6.8001H51.4567V8.70397H48.0942V10.3775H52.685V12.3735ZM48.0942 6.8001V4.11318H45.8679V6.8001H48.0942Z" fill="white"/>
<path d="M32.6676 8.82638C32.1558 8.82638 31.6747 8.73425 31.2243 8.55001C30.7739 8.35553 30.385 8.09451 30.0574 7.76696C29.7094 7.44965 29.4381 7.07604 29.2437 6.64613C29.0492 6.20599 28.9519 5.73514 28.9519 5.23358C28.9519 4.73203 29.0492 4.26629 29.2437 3.83639C29.4381 3.39624 29.7094 3.0124 30.0574 2.68485C30.385 2.3573 30.7739 2.10141 31.2243 1.91716C31.6747 1.72268 32.1558 1.62544 32.6676 1.62544C33.1794 1.62544 33.6553 1.72268 34.0955 1.91716C34.5458 2.10141 34.9399 2.3573 35.2777 2.68485C35.6053 3.0124 35.8663 3.39624 36.0608 3.83639C36.2655 4.26629 36.3678 4.73203 36.3678 5.23358C36.3678 5.73514 36.2655 6.20599 36.0608 6.64613C35.8663 7.07604 35.6053 7.44965 35.2777 7.76696C34.9399 8.09451 34.5458 8.35553 34.0955 8.55001C33.6553 8.73425 33.1794 8.82638 32.6676 8.82638ZM32.6676 3.62143C32.2274 3.62143 31.8538 3.78009 31.5467 4.0974C31.2499 4.40448 31.1015 4.78321 31.1015 5.23358C31.1015 5.68396 31.2499 6.06269 31.5467 6.36977C31.8538 6.67684 32.2274 6.83038 32.6676 6.83038C32.8723 6.83038 33.0668 6.79455 33.251 6.7229C33.4455 6.64102 33.6144 6.5233 33.7577 6.36977C33.901 6.22646 34.0136 6.05757 34.0955 5.86309C34.1773 5.65837 34.2183 5.44854 34.2183 5.23358C34.2183 5.01863 34.1773 4.81391 34.0955 4.61943C34.0136 4.41471 33.901 4.23559 33.7577 4.08205C33.6144 3.93875 33.4455 3.82615 33.251 3.74426C33.0668 3.66238 32.8723 3.62143 32.6676 3.62143ZM40.2063 12.3731H38.0107V0.765625H40.2063V12.3731ZM37.4272 10.1468V12.0967H28.5527V10.1468H37.4272Z" fill="#EFFF04"/>
<path d="M17.3663 5.24894C17.1411 5.24894 16.9261 5.30012 16.7214 5.40248C16.5167 5.50483 16.3376 5.64814 16.184 5.83238C16.0305 6.00639 15.9077 6.21623 15.8155 6.46189C15.7234 6.70755 15.6774 6.96345 15.6774 7.22958C15.6774 7.50595 15.7234 7.76696 15.8155 8.01262C15.9077 8.24805 16.0305 8.45277 16.184 8.62678C16.3376 8.81102 16.5167 8.95432 16.7214 9.05668C16.9261 9.15904 17.1411 9.21022 17.3663 9.21022C17.6017 9.21022 17.8218 9.15904 18.0265 9.05668C18.2312 8.95432 18.4103 8.81102 18.5639 8.62678C18.7174 8.45277 18.8351 8.24805 18.917 8.01262C19.0091 7.76696 19.0552 7.50595 19.0552 7.22958C19.0552 6.96345 19.0091 6.70755 18.917 6.46189C18.8351 6.21623 18.7174 6.00639 18.5639 5.83238C18.4103 5.64814 18.2312 5.50483 18.0265 5.40248C17.8218 5.30012 17.6017 5.24894 17.3663 5.24894ZM17.3663 11.3137C16.8545 11.3137 16.3734 11.2113 15.923 11.0066C15.4829 10.7917 15.0939 10.4999 14.7561 10.1314C14.4184 9.75272 14.1522 9.3177 13.9577 8.82638C13.7633 8.32482 13.666 7.79255 13.666 7.22958C13.666 6.66661 13.7633 6.13946 13.9577 5.64814C14.1522 5.15681 14.4184 4.72179 14.7561 4.34306C15.0939 3.97457 15.4829 3.68797 15.923 3.48325C16.3734 3.2683 16.8545 3.16082 17.3663 3.16082C17.8781 3.16082 18.3592 3.2683 18.8095 3.48325C19.2599 3.68797 19.6489 3.97457 19.9764 4.34306C20.3142 4.72179 20.5752 5.15681 20.7595 5.64814C20.954 6.13946 21.0512 6.66661 21.0512 7.22958C21.0512 7.79255 20.954 8.32482 20.7595 8.82638C20.5752 9.3177 20.3142 9.75272 19.9764 10.1314C19.6489 10.4999 19.2599 10.7917 18.8095 11.0066C18.3592 11.2113 17.8781 11.3137 17.3663 11.3137ZM24.9511 7.41383H23.7074V12.3731H21.5732V1.50261H23.7074V5.46389H24.9511V0.765625H27.1006V12.3731H24.9511V7.41383Z" fill="white"/>
<path d="M2.32499 9.02597L0.820312 7.59807L3.63006 4.57337H1.40376V2.85374H4.01391V0.919163H6.24021V2.85374H8.85036V4.57337H6.62405L9.41845 7.59807L7.92913 9.02597L5.11938 5.41783L2.32499 9.02597ZM12.612 12.3731H10.4164V0.765625H12.612V12.3731ZM9.81765 10.1468V12.0967H0.958497V10.1468H3.93714V7.75161H6.17879V10.1468H9.81765Z" fill="white"/>
</svg>
